<svg width="31" height="29" viewBox="0 0 31 29" fill="none" xmlns="http://www.w3.org/2000/svg">
<path d="M12.8948 27.695L21.0629 3.1901C21.3655 2.28226 20.8749 1.30094 19.967 0.998289C19.0593 0.695751 18.0779 1.18635 17.7752 2.09419L9.60705 26.5991C9.30452 27.5069 9.79511 28.4882 10.703 28.7909C10.8847 28.8514 11.0695 28.8802 11.2511 28.8802C11.9765 28.8803 12.6526 28.4211 12.8948 27.695Z" fill="#00ECD0"/>
<path d="M25.1367 20.0929C28.003 20.0929 30.335 17.761 30.335 14.8947C30.335 12.0283 28.003 9.69641 25.1367 9.69641C22.2704 9.69641 19.9385 12.0283 19.9385 14.8947C19.9385 17.761 22.2704 20.0929 25.1367 20.0929ZM25.1367 13.1619C26.0922 13.1619 26.8695 13.9392 26.8695 14.8947C26.8695 15.8501 26.0922 16.6274 25.1367 16.6274C24.1813 16.6274 23.404 15.8501 23.404 14.8947C23.404 13.9392 24.1813 13.1619 25.1367 13.1619Z" fill="#00ECD0"/>
<path d="M5.5332 9.69641C2.66689 9.69641 0.334961 12.0283 0.334961 14.8947C0.334961 17.761 2.66689 20.0929 5.5332 20.0929C8.39951 20.0929 10.7314 17.761 10.7314 14.8947C10.7314 12.0283 8.39963 9.69641 5.5332 9.69641ZM5.5332 16.6274C4.57776 16.6274 3.80045 15.8501 3.80045 14.8947C3.80045 13.9392 4.57776 13.1619 5.5332 13.1619C6.48864 13.1619 7.26595 13.9392 7.26595 14.8947C7.26595 15.8501 6.48875 16.6274 5.5332 16.6274Z" fill="#00ECD0"/>
</svg>
