<svg width="103" height="29" viewBox="0 0 103 29" fill="none" xmlns="http://www.w3.org/2000/svg">
<path d="M0.770264 22.3437H4.38576V13.0153C4.38576 11.1277 5.6442 9.84925 7.20226 9.84925C8.73036 9.84925 9.77905 10.878 9.77905 12.456V22.3437H13.3246V12.7756C13.3246 11.0478 14.3534 9.84925 16.1012 9.84925C17.5594 9.84925 18.7179 10.7082 18.7179 12.6058V22.3437H22.3434V12.0465C22.3434 8.62078 20.3659 6.80305 17.5494 6.80305C15.3222 6.80305 13.6243 7.90168 12.9451 9.60955H12.7853C12.196 7.87172 10.7079 6.80305 8.64047 6.80305C6.58303 6.80305 5.04494 7.86173 4.40574 9.60955H4.22596V7.0028H0.770264V22.3437Z" fill="#18216D"/>
<path d="M32.8029 22.6433C36.3784 22.6433 38.8354 20.8955 39.4746 18.2288L36.0988 17.8493C35.6094 19.1477 34.4109 19.8268 32.8528 19.8268C30.5157 19.8268 28.9677 18.2888 28.9377 15.662H39.6244V14.5534C39.6244 9.1701 36.3884 6.80305 32.6131 6.80305C28.2186 6.80305 25.3522 10.029 25.3522 14.7631C25.3522 19.5771 28.1787 22.6433 32.8029 22.6433ZM28.9477 13.2251C29.0576 11.2675 30.5058 9.61954 32.6631 9.61954C34.7405 9.61954 36.1387 11.1377 36.1587 13.2251H28.9477Z" fill="#18216D"/>
<path d="M50.3436 7.0028H47.3173V3.32737H43.7018V7.0028H41.5245V9.79932H43.7018V18.3287C43.6819 21.2151 45.7792 22.6333 48.4959 22.5534C49.5246 22.5235 50.2337 22.3237 50.6232 22.1939L50.014 19.3674C49.8142 19.4173 49.4047 19.5072 48.9553 19.5072C48.0464 19.5072 47.3173 19.1876 47.3173 17.7294V9.79932H50.3436V7.0028Z" fill="#18216D"/>
<path d="M61.0278 7.0028H58.0015V3.32737H54.386V7.0028H52.2087V9.79932H54.386V18.3287C54.3661 21.2151 56.4635 22.6333 59.1801 22.5534C60.2088 22.5235 60.9179 22.3237 61.3074 22.1939L60.6982 19.3674C60.4984 19.4173 60.0889 19.5072 59.6395 19.5072C58.7306 19.5072 58.0015 19.1876 58.0015 17.7294V9.79932H61.0278V7.0028Z" fill="#18216D"/>
<path d="M64.0515 22.3437H67.667V7.0028H64.0515V22.3437ZM65.8692 4.82551C67.0178 4.82551 67.9566 3.9466 67.9566 2.86794C67.9566 1.7793 67.0178 0.900391 65.8692 0.900391C64.7107 0.900391 63.7719 1.7793 63.7719 2.86794C63.7719 3.9466 64.7107 4.82551 65.8692 4.82551Z" fill="#18216D"/>
<path d="M75.0004 13.3549C75.0004 11.1377 76.3387 9.85924 78.2463 9.85924C80.114 9.85924 81.2326 11.0877 81.2326 13.1352V22.3437H84.8481V12.5759C84.8581 8.90044 82.7607 6.80305 79.5947 6.80305C77.2975 6.80305 75.7195 7.90168 75.0204 9.60955H74.8406V7.0028H71.3849V22.3437H75.0004V13.3549Z" fill="#18216D"/>
<path d="M95.1952 28.4161C99.3401 28.4161 102.396 26.5185 102.396 22.5934V7.0028H98.8307V9.53964H98.631C98.0817 8.43102 96.9331 6.80305 94.2265 6.80305C90.6809 6.80305 87.8943 9.57959 87.8943 14.6233C87.8943 19.6271 90.6809 22.124 94.2165 22.124C96.8432 22.124 98.0717 20.7157 98.631 19.5871H98.8107V22.4935C98.8107 24.7507 97.3126 25.6796 95.2552 25.6796C93.0779 25.6796 92.1191 24.6508 91.6796 23.752L88.4237 24.541C89.0829 26.6883 91.2901 28.4161 95.1952 28.4161ZM95.2252 19.2875C92.8382 19.2875 91.5798 17.4298 91.5798 14.6033C91.5798 11.8168 92.8182 9.76935 95.2252 9.76935C97.5523 9.76935 98.8307 11.697 98.8307 14.6033C98.8307 17.5297 97.5323 19.2875 95.2252 19.2875Z" fill="#18216D"/>
</svg>
